<svg xmlns="http://www.w3.org/2000/svg" viewBox="0 0 64 64" role="img" aria-label="朝花曦時">
	<rect width="64" height="64" rx="18" fill="#f8f2e7" />
	<path fill="#7b1f2c" d="M31.7 13.8c5.6 0 10.2 3.8 10.2 8.7 0 4-3.1 7.2-7.5 8.3 3.5 2.3 5.6 5.9 5.6 10.1 0 7.4-6.4 12.1-13.9 12.1-4.4 0-8.4-1.3-11.4-3.7l3.4-6.1c2.1 1.9 4.7 2.9 7.4 2.9 4 0 6.7-2.1 6.7-5.4 0-3.8-3.2-5.7-8.9-5.7h-2.1v-6.4h2.3c6.3 0 10.5-2 10.5-5.5 0-2.2-1.8-3.8-4.5-3.8-2.9 0-5.5 1.2-7.6 3.6l-3.8-5.4c3.1-2.5 7.8-3.7 13.6-3.7Z" />
	<path fill="#68705a" d="M40.6 32.2c5.4.3 9.4 3.4 11.8 8.8-5.6.8-10.1-.6-13.2-4.2-1.6 5.8-5.5 9.6-11.3 11.3-.9-6.8 1.4-12.1 7.1-15.8-4.8-3.3-6.6-8.2-5.4-14.8 5.7 2 9.4 6.8 11 14.7Z" opacity=".82" />
	<circle cx="41.2" cy="25.5" r="5.6" fill="#b89a63" opacity=".7" />
</svg>
